<svg width="69.007mm" height="44.4mm" version="1.1" viewBox="0 0 69.007 44.4" xml:space="preserve" xmlns="http://www.w3.org/2000/svg" xmlns:xlink="http://www.w3.org/1999/xlink"><g transform="translate(-53.302 -13.35)"><path d="m95.048 13.35c-0.52917 0-0.98392 0.024807-1.3643 0.074414-0.3638 0.033073-0.66146 0.090951-0.89297 0.17363-0.23151 0.082683-0.41341 0.19844-0.5457 0.34727-0.13229 0.13229-0.23151 0.30592-0.29766 0.5209l-14.833 41.647c-0.09922 0.28112-0.13229 0.5209-0.099219 0.71934 0.033073 0.21497 0.1571 0.38861 0.37207 0.5209 0.23151 0.13229 0.56224 0.23151 0.99219 0.29766s0.98392 0.099219 1.6619 0.099219c0.5457 0 0.99219-0.024808 1.3395-0.074414 0.3638-0.033074 0.66146-0.090951 0.89297-0.17363 0.24805-0.082683 0.43822-0.19017 0.57051-0.32246 0.13229-0.13229 0.23978-0.30592 0.32246-0.5209l14.808-41.672c0.08268-0.28112 0.10749-0.5209 0.074414-0.71934-0.033073-0.21497-0.1571-0.38861-0.37207-0.5209s-0.53744-0.23151-0.96738-0.29766c-0.41341-0.066147-0.96738-0.099219-1.6619-0.099219zm6.8595 10.217c-0.13927 0.003618-0.25942 0.070797-0.3607 0.20102-0.09924 0.14883-0.17365 0.39687-0.22325 0.74414-0.03306 0.34727-0.0496 0.82682-0.0496 1.4387 0 0.69453 0.00827 1.2485 0.0248 1.6619 0.03307 0.39688 0.09095 0.71934 0.17363 0.96738 0.08269 0.23151 0.19844 0.40514 0.34727 0.5209 0.16537 0.11576 0.38034 0.23151 0.64492 0.34726l14.015 6.4988-14.288 6.6973c-0.19844 0.082683-0.35554 0.1819-0.47129 0.29766-0.11577 0.099219-0.20672 0.26458-0.27285 0.49609-0.06615 0.23151-0.11576 0.5457-0.14883 0.94258-0.01653 0.39688-0.0248 0.93431-0.0248 1.6123 0 0.49609 0.01654 0.9095 0.0496 1.2402 0.04962 0.31419 0.12403 0.55397 0.22325 0.71934 0.11575 0.16536 0.25631 0.25631 0.42168 0.27285 0.16536 0.016536 0.3638-0.033074 0.59531-0.14883l19.025-9.4258c0.11576-0.049609 0.21498-0.13229 0.29766-0.24805 0.09923-0.13229 0.17364-0.30592 0.22324-0.5209 0.06616-0.21497 0.11576-0.47956 0.14883-0.79375s0.04961-0.68626 0.04961-1.1162c0-0.84336-0.06614-1.48-0.19844-1.91-0.11575-0.42995-0.28112-0.69453-0.49609-0.79375l-19.05-9.5002c-0.23151-0.11576-0.42995-0.1819-0.59531-0.19844-0.02067-0.002067-0.04109-0.0031-0.06098-0.002584zm-28.362 0.058395c-0.156-0.006331-0.339 0.041341-0.5488 0.14263l-19 9.4258c-0.11576 0.066146-0.22324 0.16536-0.32246 0.29766-0.082684 0.11576-0.14883 0.28112-0.19844 0.49609-0.04961 0.19844-0.09095 0.46302-0.12402 0.79375-0.033073 0.31419-0.049609 0.68626-0.049609 1.1162 0 0.84336 0.049609 1.48 0.14883 1.91 0.11576 0.41341 0.28939 0.68626 0.5209 0.81856l19.025 9.4754c0.24805 0.11575 0.44648 0.1819 0.59531 0.19844 0.16536 0.016536 0.29766-0.04961 0.39688-0.19844 0.11576-0.14883 0.19844-0.39688 0.24805-0.74414 0.049607-0.34727 0.074414-0.82682 0.074414-1.4387 0-0.69453-0.016536-1.2402-0.049609-1.6371-0.033073-0.41341-0.090951-0.73587-0.17363-0.96738-0.082683-0.24805-0.20671-0.42995-0.37207-0.5457-0.14883-0.11576-0.34727-0.23151-0.59531-0.34726l-14.015-6.4988 14.288-6.6973c0.19844-0.099219 0.35553-0.19844 0.47129-0.29766 0.11576-0.099219 0.2067-0.26458 0.27285-0.49609 0.066148-0.23151 0.10749-0.5457 0.12402-0.94258 0.033073-0.39688 0.049609-0.93431 0.049609-1.6123 0-0.99219-0.099218-1.6454-0.29766-1.9596-0.11162-0.18604-0.26762-0.28332-0.46819-0.29146z" stroke-width="2.6458"/></g></svg>
