<svg width="14.817mm" height="21.167mm" version="1.1" viewBox="0 0 14.817 21.167" xmlns="http://www.w3.org/2000/svg">
 <g transform="translate(79.57 -68.351)">
  <path d="m-78.512 68.351c-0.58208 0-1.0583 0.47625-1.0583 1.0583v19.05c0 0.58208 0.47625 1.0583 1.0583 1.0583h12.7c0.58208 0 1.0583-0.47625 1.0583-1.0583v-19.05c0-0.58208-0.47625-1.0583-1.0583-1.0583h-12.7zm1.5875 2.6458h9.525v4.2333h-9.525v-4.2333zm0 6.35h1.5875v1.5875h-1.5875v-1.5875zm2.6458 0h1.5875v1.5875h-1.5875v-1.5875zm2.6458 0h1.5875v1.5875h-1.5875v-1.5875zm2.6458 0h1.5875v1.5875h-1.5875v-1.5875zm-7.9375 2.6458h1.5875v1.5875h-1.5875v-1.5875zm2.6458 0h1.5875v1.5875h-1.5875v-1.5875zm2.6458 0h1.5875v1.5875h-1.5875v-1.5875zm2.6458 0h1.5875v1.5875h-1.5875v-1.5875zm-7.9375 2.6458h1.5875v1.5875h-1.5875v-1.5875zm2.6458 0h1.5875v1.5875h-1.5875v-1.5875zm2.6458 0h1.5875v1.5875h-1.5875v-1.5875zm2.6458 0h1.5875v1.5875h-1.5875v-1.5875zm-7.9375 2.6458h4.2333v1.5875h-4.2333v-1.5875zm5.2917 0h1.5875v1.5875h-1.5875v-1.5875zm2.6458 0h1.5875v1.5875h-1.5875v-1.5875z" stroke-width=".26458"/>
 </g>
</svg>
