<svg width="145.99mm" height="139.94mm" version="1.1" viewBox="0 0 145.99 139.94" xml:space="preserve" xmlns="http://www.w3.org/2000/svg" xmlns:xlink="http://www.w3.org/1999/xlink"><g transform="translate(76.133 89.414)"><path d="m-60.841-89.414-1.2599 3.2949 82.035 31.362-0.044958 0.19482c1.6586 0.38269 6.0761 2.5295 8.5519 7.4998 2.21 5.5401 5.8708 19.438 9.4547 33.515 3.5952 14.122 7.1496 28.474 9.4423 35.528l0.003618 0.010852 0.003617 0.010852c5.1893 15.293 6.0509 14.901 8.5204 19.083 1.5888 2.6907 4.3884 4.6547 6.8358 6.1965 1.2237 0.77091 2.369 1.4192 3.2189 1.9131 0.42496 0.24696 0.77786 0.45748 1.0046 0.60513 0.13108 0.085362 0.23299 0.19712 0.24288 0.20464v-5.17e-4c-0.003496-0.006622-0.047442-0.061422-0.14934-0.19999l2.8422-2.0898c-0.43102-0.58604-0.677-0.65338-1.0108-0.87075-0.33378-0.21736-0.7175-0.44376-1.157-0.69918-0.87906-0.51084-1.9733-1.1307-3.1109-1.8474-2.2752-1.4334-4.6847-3.322-5.6787-5.0054-2.6957-4.5648-3.0696-3.2539-8.2129-18.409-2.1874-6.7323-5.7786-21.169-9.3762-35.3-3.5988-14.136-7.1637-27.897-9.6227-34.028l-0.025321-0.062528-0.029973-0.060979c-2.283-4.6311-5.7366-7.2797-8.5426-8.5804l0.058911-0.154-83.993-32.11zm128.01 139.42v5.16e-4h5.16e-4v-5.16e-4h-5.16e-4zm-134.83-127.1-8.4687 22.153 0.46405 0.17725c0.036381 45.052 0.17636 58.135 0.21136 103.52a1.7641 1.7641 0 0 0 1.7637 1.7622h119.12a1.7641 1.7641 0 0 0 0.55397-3.4386l-9.2682-3.0665-6.8885-3.1533-6.5484-3.9729-6.9422-5.5712-5.2607-5.2178-4.1088-5.4958-3.9352-6.889-3.8194-10.123-2.2138-6.5898-1.8862-6.5521-2.219-10.914-1.0604-5.764-0.51056-2.9306 19.842 7.5856 8.4687-22.153-87.289-33.37zm2.0355 4.5553 80.698 30.85-5.9495 15.562-80.698-30.851 5.949-15.562zm-6.5081 19.614 59.701 22.801 0.78652 4.5114a1.7641 1.7641 0 0 0 0.002584 0.016537l1.0651 5.7888a1.7641 1.7641 0 0 0 0.006202 0.032039l2.236 10.998a1.7641 1.7641 0 0 0 0.03359 0.13694l1.9167 6.6564a1.7641 1.7641 0 0 0 0.022738 0.073897l2.236 6.657a1.7641 1.7641 0 0 0 0.021704 0.060978l3.8804 10.284a1.7641 1.7641 0 0 0 0.11886 0.25218l4.0587 7.105a1.7641 1.7641 0 0 0 0.11886 0.18087l4.2519 5.6875a1.7641 1.7641 0 0 0 0.17053 0.19637l5.4193 5.3743a1.7641 1.7641 0 0 0 0.13798 0.12299l7.1045 5.702a1.7641 1.7641 0 0 0 0.18914 0.13229l6.735 4.0861a1.7641 1.7641 0 0 0 0.18087 0.095602l6.4792 2.9662h-106.67c-0.03711-42.702-0.16424-57.685-0.20309-99.918z" fill-rule="evenodd" stop-color="#000000" stroke-miterlimit="8" stroke-width=".26458"/></g></svg>
